<svg xmlns="http://www.w3.org/2000/svg" viewBox="0 0 960 512" role="img" aria-label="Barbie Core logo mark">
  <defs>
    <linearGradient id="panel" x1="0%" y1="0%" x2="100%" y2="100%">
      <stop offset="0%" stop-color="#FFF8FF" />
      <stop offset="100%" stop-color="#FFE3F4" />
    </linearGradient>
    <linearGradient id="bg" x1="0%" y1="0%" x2="100%" y2="100%">
      <stop offset="0%" stop-color="#FF9FD2" />
      <stop offset="52%" stop-color="#FF69B4" />
      <stop offset="100%" stop-color="#E0218A" />
    </linearGradient>
    <radialGradient id="shine" cx="28%" cy="24%" r="74%">
      <stop offset="0%" stop-color="#FFFFFF" stop-opacity="0.75" />
      <stop offset="100%" stop-color="#FFFFFF" stop-opacity="0" />
    </radialGradient>
  </defs>
  <rect width="960" height="512" rx="84" fill="url(#panel)" />
  <g transform="translate(56 56) scale(3.125)">
    <rect x="6" y="6" width="116" height="116" rx="34" fill="url(#bg)" />
    <rect x="10" y="10" width="108" height="108" rx="30" fill="none" stroke="#FFF8FF" stroke-opacity="0.55" stroke-width="2" />
    <circle cx="64" cy="64" r="34" fill="#FFF8FF" fill-opacity="0.2" />
    <text x="64" y="81" text-anchor="middle" font-size="62" font-family="Montserrat, Arial, sans-serif" font-weight="800" fill="#FFF8FF">B</text>
    <path d="M93 26L97.2 34.6L106 39L97.2 43.4L93 52L88.8 43.4L80 39L88.8 34.6L93 26Z" fill="#FFF8FF" />
    <rect x="6" y="6" width="116" height="116" rx="34" fill="url(#shine)" />
  </g>
  <text x="492" y="220" fill="#E0218A" font-family="Lobster, cursive" font-size="122">Barbie Core</text>
  <text x="494" y="286" fill="#A21261" font-family="Montserrat, Arial, sans-serif" font-size="42" font-weight="700">Portfolio</text>
  <text x="494" y="338" fill="#C14588" font-family="Montserrat, Arial, sans-serif" font-size="28" font-weight="600">
    React | Tailwind CSS | Framer Motion
  </text>
</svg>
